<svg width="17" height="16" viewBox="0 0 17 16" fill="none" xmlns="http://www.w3.org/2000/svg">
<g clip-path="url(#clip0_91_541)">
<path d="M12.162 0.419934C11.227 0.419934 10.349 0.783934 9.68801 1.44493L8.52201 2.60993C8.19606 2.93405 7.93764 3.3196 7.7617 3.74426C7.58576 4.16893 7.49579 4.62427 7.49701 5.08393C7.49701 5.82093 7.72701 6.51993 8.14601 7.10793L7.18901 8.06493C6.59893 7.64191 5.89105 7.41458 5.16501 7.41493C4.23001 7.41493 3.35201 7.77993 2.69101 8.44093L1.52501 9.60793C1.1993 9.93182 0.941018 10.317 0.765084 10.7413C0.58915 11.1656 0.499055 11.6206 0.500007 12.0799C0.500007 13.0149 0.864008 13.8929 1.52501 14.5539C1.84891 14.8799 2.23428 15.1383 2.65878 15.3143C3.08329 15.4902 3.53849 15.5802 3.99801 15.5789C4.93301 15.5789 5.81101 15.2149 6.47201 14.5539L7.63801 13.3879C8.07787 12.9511 8.3929 12.4045 8.55044 11.805C8.70798 11.2054 8.70231 10.5746 8.53401 9.97793L7.48601 11.0269C7.46169 11.6049 7.22197 12.1528 6.81401 12.5629L5.64701 13.7299C4.73701 14.6399 3.25801 14.6399 2.34901 13.7299C1.91239 13.2922 1.66719 12.6992 1.66719 12.0809C1.66719 11.4627 1.91239 10.8697 2.34901 10.4319L3.51601 9.26593C3.73269 9.0495 3.99001 8.87801 4.27317 8.76132C4.55632 8.64462 4.85975 8.58502 5.16601 8.58593C5.57501 8.58593 5.98001 8.69893 6.34301 8.91193L4.75301 10.5029C4.69884 10.557 4.65585 10.6213 4.62651 10.692C4.59717 10.7627 4.58204 10.8385 4.582 10.9151C4.58195 10.9916 4.59699 11.0675 4.62624 11.1382C4.6555 11.209 4.6984 11.2733 4.75251 11.3274C4.80661 11.3816 4.87086 11.4246 4.94157 11.4539C5.01229 11.4833 5.08809 11.4984 5.16465 11.4984C5.24122 11.4985 5.31704 11.4835 5.38779 11.4542C5.45854 11.4249 5.52284 11.382 5.57701 11.3279L11.407 5.49693C11.4612 5.44283 11.5042 5.37858 11.5335 5.30787C11.5628 5.23715 11.578 5.16135 11.578 5.08479C11.5781 5.00823 11.563 4.9324 11.5338 4.86165C11.5045 4.7909 11.4616 4.7266 11.4075 4.67243C11.3534 4.61826 11.2892 4.57528 11.2184 4.54594C11.1477 4.5166 11.0719 4.50147 10.9954 4.50142C10.9188 4.50138 10.843 4.51641 10.7722 4.54567C10.7015 4.57492 10.6372 4.61783 10.583 4.67193L8.99301 6.26293C8.73064 5.81911 8.62296 5.30077 8.68684 4.78916C8.75072 4.27756 8.98256 3.80162 9.34601 3.43593L10.512 2.26893C10.7286 2.05241 10.9859 1.88087 11.2691 1.76416C11.5523 1.64746 11.8557 1.58791 12.162 1.58893C12.759 1.58893 13.356 1.81493 13.811 2.26893C14.721 3.17893 14.721 4.65893 13.811 5.56693L12.644 6.73393C12.2338 7.14161 11.6858 7.38098 11.108 7.40493L10.06 8.45493C10.362 8.53693 10.675 8.58293 10.996 8.58293C11.931 8.58293 12.809 8.21893 13.47 7.55793L14.636 6.39193C14.962 6.06781 15.2204 5.68227 15.3963 5.2576C15.5723 4.83294 15.6622 4.3776 15.661 3.91793C15.661 2.98393 15.297 2.10593 14.636 1.44493C14.3119 1.11899 13.9263 0.860566 13.5017 0.684625C13.077 0.508683 12.6217 0.418717 12.162 0.419934Z" fill="#7E7F89"/>
</g>
<defs>
<clipPath id="clip0_91_541">
<rect width="16" height="16" fill="white" transform="translate(0.5)"/>
</clipPath>
</defs>
</svg>
