<svg width="22" height="22" viewBox="0 0 22 22" fill="none" xmlns="http://www.w3.org/2000/svg">
<circle cx="11" cy="11" r="11" fill="#7E7F89"/>
<path d="M14.6666 11.6115H11.611V14.6671C11.611 15.0032 11.336 15.2782 10.9999 15.2782C10.6638 15.2782 10.3888 15.0032 10.3888 14.6671V11.6115H7.33322C6.99711 11.6115 6.72211 11.3365 6.72211 11.0004C6.72211 10.6643 6.99711 10.3893 7.33322 10.3893H10.3888V7.33377C10.3888 6.99766 10.6638 6.72266 10.9999 6.72266C11.336 6.72266 11.611 6.99766 11.611 7.33377V10.3893H14.6666C15.0027 10.3893 15.2777 10.6643 15.2777 11.0004C15.2777 11.3365 15.0027 11.6115 14.6666 11.6115Z" fill="#F3F5F7"/>
</svg>
