<svg width="17" height="16" viewBox="0 0 17 16" fill="none" xmlns="http://www.w3.org/2000/svg">
<g clip-path="url(#clip0_91_545)">
<path d="M13.9517 2.76633C12.9378 2.30089 11.8678 1.96894 10.7685 1.77877C10.7585 1.77676 10.7481 1.778 10.7388 1.78232C10.7296 1.78663 10.7219 1.7938 10.717 1.80277C10.5801 2.04722 10.4272 2.36633 10.3205 2.617C9.13533 2.43703 7.92975 2.43703 6.74454 2.617C6.62481 2.33835 6.48979 2.06653 6.3401 1.80277C6.33489 1.79407 6.32719 1.78714 6.318 1.78286C6.30881 1.77858 6.29855 1.77716 6.28854 1.77877C5.17121 1.97077 4.10187 2.30855 3.10454 2.76633C3.09574 2.76988 3.08828 2.77609 3.08321 2.78411C1.05654 5.81522 0.500096 8.76988 0.772985 11.689C0.773764 11.6961 0.775976 11.703 0.779489 11.7093C0.783002 11.7156 0.787743 11.7211 0.793429 11.7254C1.97436 12.6004 3.29539 13.2682 4.7001 13.7006C4.71 13.7036 4.72059 13.7035 4.73044 13.7003C4.74029 13.6971 4.74894 13.691 4.75521 13.6828C5.05565 13.2712 5.3241 12.8383 5.55432 12.3823C5.55753 12.3761 5.55938 12.3692 5.55976 12.3622C5.56014 12.3552 5.55903 12.3482 5.55651 12.3417C5.554 12.3351 5.55012 12.3292 5.54515 12.3243C5.54017 12.3193 5.53421 12.3155 5.52765 12.313C5.1058 12.1518 4.69741 11.9574 4.30632 11.7317C4.29909 11.7275 4.29302 11.7216 4.28865 11.7146C4.28428 11.7075 4.28176 11.6994 4.28132 11.6911C4.28088 11.6828 4.28253 11.6745 4.28612 11.667C4.28971 11.6595 4.29513 11.653 4.30187 11.6481C4.38365 11.5868 4.46543 11.5237 4.54365 11.4588C4.55057 11.4529 4.55899 11.4492 4.56796 11.4479C4.57692 11.4466 4.58606 11.4479 4.59432 11.4517C7.15432 12.6206 9.92676 12.6206 12.4565 11.4517C12.4648 11.4476 12.4741 11.4461 12.4832 11.4472C12.4924 11.4483 12.501 11.452 12.5081 11.4579C12.5863 11.5228 12.6681 11.5868 12.7508 11.6481C12.7575 11.653 12.7629 11.6595 12.7665 11.667C12.7701 11.6745 12.7718 11.6828 12.7713 11.6911C12.7709 11.6994 12.7684 11.7075 12.764 11.7146C12.7596 11.7216 12.7535 11.7275 12.7463 11.7317C12.3566 11.9594 11.9483 12.1539 11.5259 12.313C11.5193 12.3155 11.5133 12.3193 11.5084 12.3243C11.5034 12.3292 11.4995 12.3351 11.497 12.3417C11.4945 12.3482 11.4934 12.3552 11.4938 12.3622C11.4941 12.3692 11.496 12.3761 11.4992 12.3823C11.7339 12.8374 12.0023 13.2712 12.2974 13.6819C12.3099 13.6997 12.333 13.7068 12.3525 13.6997C13.7596 13.2693 15.0829 12.602 16.2654 11.7263C16.2712 11.7221 16.2761 11.7166 16.2796 11.7103C16.2831 11.704 16.2853 11.6971 16.2859 11.6899C16.6121 8.31477 15.7392 5.38322 13.9721 2.785C13.9677 2.77654 13.9605 2.76992 13.9517 2.76633ZM5.93743 9.91122C5.16676 9.91122 4.53121 9.20366 4.53121 8.33522C4.53121 7.46588 5.15343 6.75833 5.93743 6.75833C6.72676 6.75833 7.35521 7.47211 7.34276 8.33522C7.34276 9.20366 6.72054 9.91122 5.93743 9.91122ZM11.1357 9.91122C10.365 9.91122 9.72943 9.20366 9.72943 8.33522C9.72943 7.46588 10.3517 6.75833 11.1357 6.75833C11.925 6.75833 12.5534 7.47211 12.5419 8.33522C12.5419 9.20366 11.925 9.91122 11.1357 9.91122Z" fill="#B0B1B7"/>
</g>
<defs>
<clipPath id="clip0_91_545">
<rect width="16" height="16" fill="white" transform="translate(0.5)"/>
</clipPath>
</defs>
</svg>
