<svg width="17" height="16" viewBox="0 0 17 16" fill="none" xmlns="http://www.w3.org/2000/svg">
<g clip-path="url(#clip0_91_547)">
<path fill-rule="evenodd" clip-rule="evenodd" d="M5.3308 10.8893C3.79366 10.8367 2.83252 9.73158 2.57995 8.83443C3.00038 8.91521 3.43343 8.90272 3.84852 8.79786C3.8588 8.79558 3.86909 8.78872 3.8908 8.77729C3.05766 8.58415 2.41537 8.13843 1.96852 7.41958C1.67521 6.9482 1.52439 6.4021 1.53423 5.84701C1.95023 6.06758 2.38566 6.19215 2.85194 6.20472C2.22566 5.75329 1.80509 5.16472 1.63366 4.41043C1.46075 3.68109 1.57449 2.9132 1.95137 2.26529C3.55366 4.15101 5.58109 5.18758 8.05423 5.35901C8.03823 5.24015 8.01994 5.13729 8.00852 5.03329C7.92509 4.33615 8.06337 3.68815 8.44052 3.09843C8.90909 2.36015 9.58337 1.90072 10.4474 1.76129C11.4417 1.59786 12.3102 1.88129 13.0371 2.58643C13.0862 2.63329 13.1274 2.64815 13.1948 2.63329C13.8138 2.50028 14.4079 2.26999 14.9548 1.95101H14.9742C14.7518 2.61814 14.3041 3.18705 13.7079 3.56015C14.2765 3.49564 14.8321 3.34577 15.3559 3.11558C15.359 3.12072 15.3629 3.12535 15.3674 3.12929C15.2542 3.27786 15.1457 3.42872 15.0279 3.57501C14.7137 3.96015 14.3537 4.30186 13.9525 4.59558C13.9182 4.62072 13.9022 4.64472 13.9034 4.68929C13.9194 5.12815 13.9034 5.56701 13.8485 6.00358C13.7347 6.9161 13.477 7.80483 13.0851 8.63672C12.6863 9.4988 12.1454 10.2877 11.4851 10.9704C10.3878 12.1168 8.97095 12.9065 7.4188 13.2367C6.87655 13.3541 6.32433 13.4196 5.76966 13.4321C4.07174 13.4929 2.39568 13.0344 0.965088 12.1179C1.97048 12.2339 2.98887 12.0931 3.92509 11.7087C4.42794 11.503 4.89309 11.2321 5.33194 10.8881L5.3308 10.8893Z" fill="#B0B1B7"/>
</g>
<defs>
<clipPath id="clip0_91_547">
<rect width="16" height="16" fill="white" transform="translate(0.5)"/>
</clipPath>
</defs>
</svg>
