<svg width="82" height="21" viewBox="0 0 82 21" fill="none" xmlns="http://www.w3.org/2000/svg">
<path fill-rule="evenodd" clip-rule="evenodd" d="M9.71765 19.8845C14.9006 19.8845 19.1023 15.6829 19.1023 10.4999C19.1023 5.31688 14.9006 1.11523 9.71765 1.11523C4.53466 1.11523 0.333008 5.31688 0.333008 10.4999C0.333008 15.6829 4.53466 19.8845 9.71765 19.8845ZM9.71768 15.1921C12.3092 15.1921 14.41 13.0913 14.41 10.4998C14.41 7.90828 12.3092 5.80746 9.71768 5.80746C7.12618 5.80746 5.02536 7.90828 5.02536 10.4998C5.02536 13.0913 7.12618 15.1921 9.71768 15.1921Z" fill="url(#paint0_angular_91_408)"/>
<path d="M25.4821 11.4058V9.60716H28.2329C28.5929 9.60716 28.9192 9.53694 29.2117 9.39651C29.5043 9.25607 29.7349 9.05622 29.9037 8.79696C30.0724 8.5269 30.1568 8.20282 30.1568 7.82472C30.1568 7.45743 30.0724 7.13876 29.9037 6.86869C29.7349 6.59863 29.5043 6.39338 29.2117 6.25294C28.9192 6.11251 28.5929 6.04229 28.2329 6.04229H25.4821V4.24365H28.4692C29.223 4.24365 29.8981 4.38949 30.4944 4.68116C31.1019 4.97283 31.5801 5.38873 31.9288 5.92886C32.2776 6.45819 32.452 7.09015 32.452 7.82472C32.452 8.5593 32.2776 9.19666 31.9288 9.73679C31.5801 10.2661 31.1019 10.6766 30.4944 10.9683C29.8981 11.26 29.223 11.4058 28.4692 11.4058H25.4821ZM23.7944 15.635V4.24365H26.0896V15.635H23.7944Z" fill="black"/>
<path d="M35.6374 15.7971C34.8949 15.7971 34.2254 15.6188 33.6291 15.2623C33.0328 14.9058 32.5659 14.4197 32.2284 13.804C31.8909 13.1882 31.7221 12.4969 31.7221 11.7299C31.7221 10.9521 31.8909 10.2553 32.2284 9.63957C32.5659 9.02382 33.0328 8.5377 33.6291 8.18121C34.2254 7.82472 34.8949 7.64648 35.6374 7.64648C36.2225 7.64648 36.7456 7.75991 37.2069 7.98676C37.6682 8.21362 38.0339 8.5323 38.3039 8.9428C38.5852 9.34249 38.737 9.7962 38.7596 10.3039V13.1234C38.737 13.6419 38.5852 14.1011 38.3039 14.5008C38.0339 14.9004 37.6682 15.2191 37.2069 15.4568C36.7456 15.6836 36.2225 15.7971 35.6374 15.7971ZM36.0425 13.8364C36.6613 13.8364 37.1619 13.6419 37.5445 13.253C37.927 12.8533 38.1182 12.3402 38.1182 11.7137C38.1182 11.3032 38.0282 10.9413 37.8482 10.628C37.6795 10.3039 37.4376 10.0555 37.1225 9.88263C36.8188 9.69898 36.4587 9.60716 36.0425 9.60716C35.6374 9.60716 35.2774 9.69898 34.9624 9.88263C34.6586 10.0555 34.4167 10.3039 34.2367 10.628C34.0679 10.9413 33.9835 11.3032 33.9835 11.7137C33.9835 12.135 34.0679 12.5077 34.2367 12.8317C34.4167 13.145 34.6586 13.3935 34.9624 13.5771C35.2774 13.75 35.6374 13.8364 36.0425 13.8364ZM38.0001 15.635V13.5285L38.3545 11.6164L38.0001 9.73679V7.80852H40.194V15.635H38.0001Z" fill="black"/>
<path d="M46.2846 15.635V11.1465C46.2846 10.682 46.1327 10.3039 45.8289 10.0123C45.5251 9.72059 45.1313 9.57475 44.6476 9.57475C44.3325 9.57475 44.0513 9.63957 43.8037 9.7692C43.5562 9.89883 43.3593 10.0825 43.2131 10.3201C43.0781 10.5578 43.0105 10.8333 43.0105 11.1465L42.1499 10.7252C42.1499 10.1095 42.2849 9.57475 42.5549 9.12104C42.8362 8.65653 43.2187 8.29464 43.7025 8.03538C44.1975 7.77611 44.7544 7.64648 45.3732 7.64648C45.9695 7.64648 46.504 7.79232 46.9765 8.08399C47.449 8.36486 47.8203 8.73755 48.0903 9.20206C48.3604 9.65577 48.4954 10.1473 48.4954 10.6766V15.635H46.2846ZM40.7997 15.635V7.80852H43.0105V15.635H40.7997Z" fill="black"/>
<path d="M52.3351 19.1027C51.4688 19.1027 50.7038 18.9514 50.04 18.649C49.3761 18.3573 48.8474 17.9414 48.4536 17.4013L49.8543 16.0563C50.1693 16.4128 50.5181 16.6829 50.9006 16.8665C51.2944 17.061 51.767 17.1582 52.3183 17.1582C53.0046 17.1582 53.5446 16.9908 53.9384 16.6559C54.3434 16.321 54.5459 15.8565 54.5459 15.2623V13.3017L54.9172 11.584L54.5628 9.86642V7.80852H56.7567V15.2299C56.7567 16.0077 56.5655 16.6829 56.183 17.2554C55.8117 17.8388 55.2941 18.2925 54.6303 18.6166C53.9665 18.9406 53.2015 19.1027 52.3351 19.1027ZM52.2339 15.4244C51.5026 15.4244 50.8444 15.2569 50.2593 14.9221C49.6743 14.5764 49.213 14.1065 48.8755 13.5123C48.5492 12.9182 48.3861 12.2538 48.3861 11.5192C48.3861 10.7846 48.5492 10.1257 48.8755 9.54234C49.213 8.959 49.6743 8.49989 50.2593 8.16501C50.8444 7.81932 51.5026 7.64648 52.2339 7.64648C52.8414 7.64648 53.3758 7.75991 53.8371 7.98676C54.3097 8.21362 54.681 8.5269 54.951 8.92659C55.221 9.31549 55.3673 9.7746 55.3898 10.3039V12.7669C55.3673 13.2855 55.2154 13.75 54.9341 14.1605C54.6641 14.5602 54.2928 14.8734 53.8203 15.1003C53.359 15.3163 52.8302 15.4244 52.2339 15.4244ZM52.6727 13.4961C53.0777 13.4961 53.4265 13.4151 53.719 13.253C54.0228 13.0802 54.259 12.8479 54.4278 12.5563C54.5966 12.2538 54.681 11.9135 54.681 11.5354C54.681 11.1465 54.5966 10.8063 54.4278 10.5146C54.259 10.2229 54.0228 9.99605 53.719 9.83401C53.4265 9.66117 53.0777 9.57475 52.6727 9.57475C52.2676 9.57475 51.9132 9.66117 51.6095 9.83401C51.3057 9.99605 51.0694 10.2283 50.9006 10.5308C50.7319 10.8225 50.6475 11.1573 50.6475 11.5354C50.6475 11.9027 50.7319 12.2376 50.9006 12.5401C51.0694 12.8317 51.3057 13.064 51.6095 13.2368C51.9132 13.4097 52.2676 13.4961 52.6727 13.4961Z" fill="black"/>
<path d="M60.7582 15.7971C60.0156 15.7971 59.3462 15.6188 58.7499 15.2623C58.1536 14.9058 57.6867 14.4197 57.3491 13.804C57.0116 13.1882 56.8428 12.4969 56.8428 11.7299C56.8428 10.9521 57.0116 10.2553 57.3491 9.63957C57.6867 9.02382 58.1536 8.5377 58.7499 8.18121C59.3462 7.82472 60.0156 7.64648 60.7582 7.64648C61.3432 7.64648 61.8664 7.75991 62.3277 7.98676C62.7889 8.21362 63.1546 8.5323 63.4246 8.9428C63.7059 9.34249 63.8578 9.7962 63.8803 10.3039V13.1234C63.8578 13.6419 63.7059 14.1011 63.4246 14.5008C63.1546 14.9004 62.7889 15.2191 62.3277 15.4568C61.8664 15.6836 61.3432 15.7971 60.7582 15.7971ZM61.1632 13.8364C61.782 13.8364 62.2827 13.6419 62.6652 13.253C63.0477 12.8533 63.239 12.3402 63.239 11.7137C63.239 11.3032 63.149 10.9413 62.969 10.628C62.8002 10.3039 62.5583 10.0555 62.2433 9.88263C61.9395 9.69898 61.5795 9.60716 61.1632 9.60716C60.7582 9.60716 60.3981 9.69898 60.0831 9.88263C59.7793 10.0555 59.5374 10.3039 59.3574 10.628C59.1887 10.9413 59.1043 11.3032 59.1043 11.7137C59.1043 12.135 59.1887 12.5077 59.3574 12.8317C59.5374 13.145 59.7793 13.3935 60.0831 13.5771C60.3981 13.75 60.7582 13.8364 61.1632 13.8364ZM63.1208 15.635V13.5285L63.4753 11.6164L63.1208 9.73679V7.80852H65.3148V15.635H63.1208Z" fill="black"/>
<path d="M69.8189 15.7971C68.9639 15.7971 68.2044 15.6242 67.5406 15.2785C66.8768 14.9221 66.348 14.4359 65.9542 13.8202C65.5717 13.2044 65.3804 12.5023 65.3804 11.7137C65.3804 10.9359 65.5661 10.2445 65.9374 9.63957C66.3199 9.02382 66.8374 8.5377 67.49 8.18121C68.1425 7.81392 68.8682 7.63028 69.667 7.63028C70.4546 7.63028 71.1465 7.80312 71.7428 8.1488C72.3504 8.48368 72.8229 8.9482 73.1604 9.54234C73.5092 10.1257 73.6836 10.79 73.6836 11.5354C73.6836 11.6759 73.6724 11.8217 73.6499 11.9729C73.6386 12.1134 73.6105 12.2754 73.5655 12.4591L66.7137 12.4753V10.8873L72.536 10.8711L71.6416 11.5354C71.6191 11.0709 71.5291 10.682 71.3715 10.3687C71.2253 10.0555 71.0059 9.81781 70.7134 9.65577C70.4321 9.48293 70.0833 9.39651 69.667 9.39651C69.2283 9.39651 68.8457 9.49373 68.5194 9.68818C68.1932 9.87182 67.94 10.1365 67.76 10.4822C67.5912 10.8171 67.5069 11.2168 67.5069 11.6813C67.5069 12.1566 67.5969 12.5725 67.7769 12.929C67.9681 13.2747 68.2382 13.5447 68.5869 13.7392C68.9357 13.9228 69.3408 14.0146 69.802 14.0146C70.2183 14.0146 70.5952 13.9498 70.9328 13.8202C71.2703 13.6798 71.5628 13.4745 71.8103 13.2044L73.1098 14.4521C72.716 14.895 72.2322 15.2299 71.6584 15.4568C71.0959 15.6836 70.4827 15.7971 69.8189 15.7971Z" fill="black"/>
<path d="M77.1098 15.7971C76.3672 15.7971 75.6978 15.6188 75.1015 15.2623C74.5052 14.9058 74.0383 14.4197 73.7008 13.804C73.3632 13.1882 73.1945 12.4969 73.1945 11.7299C73.1945 10.9521 73.3632 10.2553 73.7008 9.63957C74.0383 9.02382 74.5052 8.5377 75.1015 8.18121C75.6978 7.82472 76.3672 7.64648 77.1098 7.64648C77.6948 7.64648 78.218 7.75991 78.6793 7.98676C79.1406 8.21362 79.5062 8.5323 79.7762 8.9428C80.0575 9.34249 80.2094 9.7962 80.2319 10.3039V13.1234C80.2094 13.6419 80.0575 14.1011 79.7762 14.5008C79.5062 14.9004 79.1406 15.2191 78.6793 15.4568C78.218 15.6836 77.6948 15.7971 77.1098 15.7971ZM77.5148 13.8364C78.1336 13.8364 78.6343 13.6419 79.0168 13.253C79.3993 12.8533 79.5906 12.3402 79.5906 11.7137C79.5906 11.3032 79.5006 10.9413 79.3206 10.628C79.1518 10.3039 78.9099 10.0555 78.5949 9.88263C78.2911 9.69898 77.9311 9.60716 77.5148 9.60716C77.1098 9.60716 76.7497 9.69898 76.4347 9.88263C76.1309 10.0555 75.8891 10.3039 75.709 10.628C75.5403 10.9413 75.4559 11.3032 75.4559 11.7137C75.4559 12.135 75.5403 12.5077 75.709 12.8317C75.8891 13.145 76.1309 13.3935 76.4347 13.5771C76.7497 13.75 77.1098 13.8364 77.5148 13.8364ZM79.4725 15.635V13.5285L79.8269 11.6164L79.4725 9.73679V7.80852H81.6664V15.635H79.4725Z" fill="black"/>
<defs>
<radialGradient id="paint0_angular_91_408" cx="0" cy="0" r="1" gradientUnits="userSpaceOnUse" gradientTransform="translate(9.71765 10.4999) rotate(90) scale(9.38464)">
<stop/>
<stop offset="0.265625" stop-color="#B9B9B9"/>
<stop offset="0.484375" stop-color="#1D1D1D"/>
<stop offset="0.671875" stop-color="#AFAFAF"/>
<stop offset="0.8125" stop-color="#B9B9B9"/>
<stop offset="1"/>
</radialGradient>
</defs>
</svg>
