<svg width="24" height="24" viewBox="0 0 24 24" fill="none" xmlns="http://www.w3.org/2000/svg">
<rect width="24" height="24" fill="#FFECE7"/>
<path d="M15.2579 18.7109V17.2669C15.258 16.8875 15.1834 16.5118 15.0384 16.1613C14.8933 15.8107 14.6806 15.4922 14.4124 15.2238C14.1442 14.9554 13.8258 14.7425 13.4754 14.5972C13.1249 14.4519 12.7493 14.377 12.3699 14.3769H6.59188C6.21241 14.3769 5.83665 14.4517 5.48608 14.5969C5.1355 14.7422 4.81698 14.9551 4.5487 15.2234C4.28041 15.4918 4.06763 15.8104 3.92251 16.161C3.77738 16.5117 3.70275 16.8874 3.70288 17.2669V18.7109M19.5959 18.7119V17.2679C19.5956 16.6279 19.3827 16.0061 18.9906 15.5002C18.5986 14.9943 18.0496 14.6329 17.4299 14.4729M14.5309 5.80591C15.1521 5.96518 15.7027 6.32663 16.0959 6.83331C16.489 7.33999 16.7024 7.96308 16.7024 8.60441C16.7024 9.24574 16.489 9.86884 16.0959 10.3755C15.7027 10.8822 15.1521 11.2436 14.5309 11.4029M9.48288 11.4899C10.2491 11.4899 10.9839 11.1855 11.5257 10.6437C12.0675 10.102 12.3719 9.36712 12.3719 8.60091C12.3719 7.8347 12.0675 7.09988 11.5257 6.55808C10.9839 6.01629 10.2491 5.71191 9.48288 5.71191C8.71667 5.71191 7.98184 6.01629 7.44005 6.55808C6.89826 7.09988 6.59388 7.8347 6.59388 8.60091C6.59388 9.36712 6.89826 10.102 7.44005 10.6437C7.98184 11.1855 8.71667 11.4899 9.48288 11.4899Z" stroke="#F06C43" stroke-linecap="round"/>
</svg>
