<svg width="24" height="24" viewBox="0 0 24 24" fill="none" xmlns="http://www.w3.org/2000/svg">
<circle cx="12" cy="12" r="12" fill="#E82A00"/>
<path fill-rule="evenodd" clip-rule="evenodd" d="M11.3965 17.4574C10.3857 16.8226 9.64099 14.6322 9.64099 12.0297C9.64099 11.9342 9.64177 11.8401 9.64375 11.746L9.64498 11.7473C6.83344 11.3044 4.80203 10.0908 4.75003 8.65583L4.74176 8.67239C4.05384 9.52944 3.66119 10.5203 3.66119 11.5761C3.66119 14.6831 7.06325 17.2288 11.3783 17.4539L11.3965 17.4574ZM2.36133 11.8029C2.36133 8.32646 6.67682 5.50781 12.0006 5.50781C17.3243 5.50781 21.64 8.32646 21.64 11.8029C21.64 15.2793 17.3243 18.098 12.0007 18.098C6.67685 18.098 2.36133 15.2792 2.36133 11.8029ZM12.0006 6.41632C13.0284 6.41632 13.9026 7.97916 14.2264 10.1598L14.2276 10.1565C16.227 9.84447 17.6269 9.12475 17.6269 8.28722C17.6269 7.16315 15.1077 6.25295 12.0007 6.25295C8.89341 6.25295 6.3744 7.16324 6.3744 8.28725C6.3744 9.12475 7.7741 9.8445 9.7737 10.1565L9.77492 10.1598C10.0988 7.97921 10.9731 6.41632 12.0006 6.41632ZM12.6228 17.4538C16.9379 17.2288 20.3404 14.683 20.3404 11.5761C20.3404 10.5203 19.9473 9.52941 19.2595 8.6723L19.2511 8.65577C19.199 10.0908 17.1682 11.3043 14.3563 11.7472L14.3576 11.7459C14.3595 11.84 14.3605 11.9341 14.3605 12.0296C14.3605 14.6321 13.6152 16.8226 12.605 17.4573L12.6228 17.4538H12.6228ZM12.0006 10.3218C12.4611 10.3218 12.9087 10.3021 13.3369 10.2643L13.3362 10.265C13.123 8.86713 12.6054 7.88059 12.0005 7.88059C11.3956 7.88059 10.878 8.86713 10.6646 10.265L10.6638 10.2643C11.0921 10.3021 11.5399 10.3218 12.0003 10.3218L12.0006 10.3218ZM12.0006 15.4984C12.7744 15.4984 13.4055 13.8842 13.4392 11.8597L13.4433 11.8611C12.977 11.9044 12.4945 11.927 12.0007 11.927C11.5065 11.927 11.0245 11.9044 10.5581 11.8611L10.5625 11.8597C10.5956 13.8841 11.2266 15.4984 12.0006 15.4984Z" fill="#FBFBFB"/>
</svg>
