<svg width="70" height="50" viewBox="0 0 70 50" fill="none" xmlns="http://www.w3.org/2000/svg">
<path fill-rule="evenodd" clip-rule="evenodd" d="M33.2921 30.9991C30.6458 29.3525 28.6963 23.6702 28.6963 16.9188C28.6963 16.6711 28.6983 16.4269 28.7035 16.1827L28.7068 16.1863C21.3464 15.0372 16.0284 11.8891 15.8923 8.16646L15.8706 8.20942C14.0697 10.4327 13.0418 13.0033 13.0418 15.7422C13.0418 23.8021 21.948 30.4061 33.2445 30.9901L33.2921 30.9991ZM9.63892 16.3304C9.63892 7.31204 20.9364 0 34.8736 0C48.8105 0 60.1085 7.31204 60.1085 16.3304C60.1085 25.3487 48.8103 32.6609 34.8737 32.6609C20.9365 32.6609 9.63892 25.3485 9.63892 16.3304ZM34.8736 2.35682C37.5641 2.35682 39.8526 6.41107 40.7005 12.0679L40.7036 12.0594C45.9378 11.25 49.6026 9.38292 49.6026 7.21024C49.6026 4.29422 43.0075 1.93301 34.8737 1.93301C26.7392 1.93301 20.1447 4.29444 20.1447 7.21031C20.1447 9.38292 23.809 11.2501 29.0437 12.0594L29.0469 12.0679C29.8947 6.41121 32.1837 2.35682 34.8736 2.35682ZM36.5024 30.9899C47.7989 30.4061 56.7063 23.8019 56.7063 15.7421C56.7063 13.0033 55.6772 10.4327 53.8765 8.2092L53.8545 8.16631C53.7183 11.889 48.4017 15.037 41.0406 16.1861L41.0438 16.1826C41.0489 16.4267 41.0514 16.6709 41.0514 16.9186C41.0514 23.67 39.1005 29.3523 36.4558 30.9988L36.5024 30.9899H36.5024ZM34.8736 12.4883C36.079 12.4883 37.2508 12.4373 38.3719 12.3391L38.3699 12.3409C37.8119 8.71461 36.4568 6.15536 34.8733 6.15536C33.2897 6.15536 31.9348 8.71461 31.376 12.3409L31.374 12.3391C32.4952 12.4373 33.6673 12.4883 34.8727 12.4883L34.8736 12.4883ZM34.8736 25.9171C36.8992 25.9171 38.5515 21.7298 38.6397 16.4778L38.6505 16.4815C37.4296 16.5938 36.1666 16.6524 34.8739 16.6524C33.58 16.6524 32.3182 16.5938 31.0972 16.4816L31.1086 16.4777C31.1954 21.7296 32.8473 25.9171 34.8736 25.9171Z" fill="#7E7F89"/>
<path fill-rule="evenodd" clip-rule="evenodd" d="M34.9478 43.1443C34.9478 39.7984 37.658 37.0859 40.9996 37.0859C44.3431 37.0859 47.0529 39.7983 47.0529 43.1443C47.0529 46.4905 44.3431 49.2026 40.9996 49.2026C37.658 49.2026 34.9478 46.4905 34.9478 43.1443ZM40.9996 46.981C42.8665 46.981 44.3798 45.2631 44.3798 43.1443C44.3798 41.0255 42.8665 39.3074 40.9996 39.3074C39.1341 39.3074 37.6212 41.0255 37.6212 43.1443C37.6212 45.2629 39.1341 46.981 40.9996 46.981Z" fill="#7E7F89"/>
<path fill-rule="evenodd" clip-rule="evenodd" d="M53.9202 48.9278H51.3703V39.6104H51.3786H47.8125V37.5039H57.4773V39.6104H53.9202V48.9278Z" fill="#7E7F89"/>
<path fill-rule="evenodd" clip-rule="evenodd" d="M60.5621 46.357L60.5596 46.3594L59.5814 48.9274H56.6035L61.3117 37.5034H64.4852L69.1939 48.9274H66.2154L65.2371 46.3594L65.2347 46.357H60.5621ZM62.8991 44.429H64.5034L64.5024 44.4294L62.91 40.2481H62.8877L61.2943 44.4294L61.2933 44.429H62.8987H62.8991Z" fill="#7E7F89"/>
<path fill-rule="evenodd" clip-rule="evenodd" d="M6.914 48.9278H4.36391V39.6104H4.37258H0.806152V37.5039H10.4714V39.6104H6.914V48.9278Z" fill="#7E7F89"/>
<path fill-rule="evenodd" clip-rule="evenodd" d="M11.1233 43.1443C11.1233 39.7984 13.8334 37.0859 17.1762 37.0859C20.5189 37.0859 23.2287 39.7983 23.2287 43.1443C23.2287 46.4905 20.5189 49.2026 17.1762 49.2026C13.8334 49.2026 11.1233 46.4905 11.1233 43.1443ZM17.1762 46.981C19.0422 46.981 20.5555 45.2631 20.5555 43.1443C20.5555 41.0255 19.0422 39.3074 17.1762 39.3074C15.31 39.3074 13.7967 41.0255 13.7967 43.1443C13.7967 45.2629 15.31 46.981 17.1762 46.981Z" fill="#7E7F89"/>
<path fill-rule="evenodd" clip-rule="evenodd" d="M29.0884 48.9278H30.3815V44.5899L34.8301 37.5039H31.8527L29.0884 42.3056L26.3246 37.5039H23.3462L27.7953 44.5899V48.9278H29.0884Z" fill="#7E7F89"/>
</svg>
